<!-- icon666.com - MILLIONS vector ICONS FREE --><svg id="Layer_1" viewBox="0 0 100 100" xmlns="http://www.w3.org/2000/svg" data-name="Layer 1"><path d="m63.958 37.522a13.958 13.958 0 1 0 -13.958 13.958 13.974 13.974 0 0 0 13.958-13.958zm-25.916 0a11.958 11.958 0 1 1 11.958 11.958 11.972 11.972 0 0 1 -11.958-11.958z"></path><path d="m50 89.873a1 1 0 0 0 .813-.417c1.087-1.512 26.587-37.204 26.587-51.934a27.4 27.4 0 0 0 -54.792 0c0 14.73 25.5 50.422 26.584 51.934a1 1 0 0 0 .808.417zm0-77.746a25.424 25.424 0 0 1 25.4 25.395c0 12.667-20.969 43.293-25.4 49.617-4.427-6.324-25.4-36.95-25.4-49.617a25.424 25.424 0 0 1 25.4-25.395z"></path></svg>